<svg width="156" height="42" viewBox="0 0 156 42" fill="none" xmlns="http://www.w3.org/2000/svg">
<path fill-rule="evenodd" clip-rule="evenodd" d="M19.7155 22.9737L18.5773 17.8277C17.9049 15.3061 17.0259 10.9835 17.0259 10.9835H16.922C16.922 10.9835 16.0951 15.3061 15.4227 17.8277L14.1807 22.9737H19.7155ZM10.3536 3.72783C10.9739 1.87528 12.1638 1 14.1807 1H19.819C21.7841 1 23.0257 1.87528 23.646 3.72783L33.732 34.1408C34.5597 36.4564 33.4215 38 30.9907 38H26.801C24.7842 38 23.5946 37.0739 22.974 35.1699L22.1981 31.5678H11.6984L10.9225 35.1699C10.4054 37.0739 9.16408 38 7.19864 38H3.00933C0.578483 38 -0.559655 36.4564 0.26799 34.1408L10.3536 3.72783Z" fill="#231F20"/>
<path fill-rule="evenodd" clip-rule="evenodd" d="M71 4.345C71 2.13239 72.2004 1 74.4441 1H91.929C94.1211 1 95.3212 2.13239 95.3212 4.345V6.91803C95.3212 9.07916 94.1211 10.263 91.929 10.263H82.0124V14.7398H89.1105C91.3545 14.7398 92.5549 15.9236 92.5549 18.0848V20.6578C92.5549 22.8711 91.3545 24.0028 89.1105 24.0028H82.0124V28.737H92.5549C94.7993 28.737 96 29.9208 96 32.082V34.655C96 36.8168 94.7993 38 92.5549 38H74.4441C72.2004 38 71 36.8168 71 34.655V4.345Z" fill="#231F20"/>
<path fill-rule="evenodd" clip-rule="evenodd" d="M99.8248 30.6016L101.772 27.7148C103.001 25.8773 104.384 25.7726 106.381 26.8748C107.56 27.3472 109.608 29.0271 112.477 29.0271C114.577 29.0271 115.192 28.2396 115.192 27.3472C115.192 23.3582 99.6205 24.1453 99.6205 12.073C99.6205 4.82892 105.46 0 113.297 0C117.549 0 121.646 1.41696 123.542 2.72957C125.334 4.04149 125.488 5.61601 124.617 7.45345L123.132 10.4453C121.903 12.9129 120.264 12.4924 118.573 11.6528C116.729 10.8129 115.346 9.97295 113.143 9.97295C111.094 9.97295 110.377 10.7079 110.377 11.7054C110.377 16.0094 126 14.6443 126 26.7701C126 33.279 121.185 39 112.477 39C107.406 39 102.591 37.0057 100.491 35.3261C99.2101 34.3286 98.237 32.9642 99.8248 30.6016Z" fill="#231F20"/>
<mask id="mask0" mask-type="alpha" maskUnits="userSpaceOnUse" x="128" y="0" width="28" height="39">
<path fill-rule="evenodd" clip-rule="evenodd" d="M128.217 0H155.921V38.7833H128.217V0Z" fill="white"/>
</mask>
<g mask="url(#mask0)">
<path fill-rule="evenodd" clip-rule="evenodd" d="M129.064 30.4315L131.061 27.5608C132.323 25.7336 133.742 25.6294 135.791 26.7255C137 27.1952 139.102 28.8658 142.046 28.8658C144.2 28.8658 144.832 28.0827 144.832 27.1952C144.832 23.2284 128.854 24.0111 128.854 12.0059C128.854 4.80209 134.846 0 142.887 0C147.249 0 151.454 1.40909 153.399 2.7144C155.238 4.01903 155.395 5.5848 154.502 7.41203L152.978 10.3872C151.717 12.8412 150.035 12.423 148.3 11.5881C146.408 10.7528 144.99 9.91753 142.729 9.91753C140.627 9.91753 139.891 10.6484 139.891 11.6403C139.891 15.9205 155.921 14.5629 155.921 26.6214C155.921 33.094 150.981 38.7833 142.046 38.7833C136.842 38.7833 131.902 36.8001 129.747 35.1298C128.433 34.1379 127.435 32.781 129.064 30.4315Z" fill="#231F20"/>
</g>
<path fill-rule="evenodd" clip-rule="evenodd" d="M56.9759 20.1958L66.4458 4.51949C67.6627 2.49308 66.8162 1 64.4882 1H60.3619C58.7746 1 57.7166 1.64028 56.9228 3.07988L53.8541 8.83831C52.5318 11.2911 51.5265 13.7439 51.5265 13.7439H51.4204C51.4204 13.7439 50.3627 11.2377 49.0925 8.83831L46.0768 3.07988C45.2837 1.64028 44.2254 1 42.6381 1H38.5118C36.1838 1 35.3373 2.49308 36.5542 4.51949L45.9714 20.1958L36.6069 35.6054C35.3904 37.6315 36.2365 39.1249 38.6175 39.1249H45.8619C46.463 39.1249 46.9505 38.6335 46.9505 38.0277V25.6696C46.9505 25.0699 47.4324 24.5843 48.0274 24.5843H56.0495L50.7418 27.521C49.8957 27.9894 49.3702 28.8848 49.3702 29.8578V40.8064C49.3702 41.7127 50.3338 42.2873 51.1219 41.8511L56.0495 39.1249H64.3825C66.7631 39.1249 67.6096 37.6315 66.3401 35.6054L56.9759 20.1958Z" fill="#231F20"/>
</svg>
